<?xml version="1.0" standalone="no"?>
<!DOCTYPE svg PUBLIC "-//W3C//DTD SVG 20010904//EN"
 "http://www.w3.org/TR/2001/REC-SVG-20010904/DTD/svg10.dtd">
<svg version="1.0" xmlns="http://www.w3.org/2000/svg"
 width="1014.000000pt" height="1014.000000pt" viewBox="0 0 1014.000000 1014.000000"
 preserveAspectRatio="xMidYMid meet">
<metadata>
Created by potrace 1.14, written by Peter Selinger 2001-2017
</metadata>
<g transform="translate(0.000000,1014.000000) scale(0.100000,-0.100000)"
fill="#000000" stroke="none">
<path d="M5042 8675 c-18 -13 -365 -215 -502 -293 -51 -29 -402 -230 -470
-270 -25 -15 -57 -33 -71 -42 -196 -113 -387 -223 -399 -231 -16 -9 -809 -467
-870 -501 -19 -11 -150 -87 -290 -168 -140 -81 -273 -158 -295 -170 -76 -43
-200 -113 -204 -117 -7 -5 -4 -3610 3 -3621 3 -6 32 -25 64 -43 90 -50 100
-56 407 -233 160 -92 346 -201 415 -241 69 -40 143 -83 165 -95 44 -25 326
-188 650 -375 116 -67 316 -183 445 -258 129 -74 291 -168 360 -207 69 -40
139 -80 155 -90 17 -9 104 -60 195 -112 91 -53 183 -106 205 -118 22 -12 44
-26 49 -30 9 -9 68 19 181 86 33 20 85 50 115 66 30 17 67 39 82 49 14 11 28
19 31 19 3 0 67 37 143 81 77 45 164 95 194 112 30 17 66 37 80 46 54 34 66
41 80 48 8 4 79 44 158 90 79 46 162 94 185 107 86 48 273 156 287 166 8 6 22
13 30 17 8 3 26 14 40 23 14 10 47 29 73 44 27 15 140 79 250 143 359 207 767
442 982 566 116 66 217 126 225 133 13 11 15 224 14 1812 0 989 -4 1803 -7
1809 -4 6 -60 41 -124 78 -65 37 -131 75 -148 85 -174 100 -344 199 -573 332
-151 87 -276 158 -278 158 -4 0 -67 37 -130 77 -10 7 -35 21 -54 31 -32 17
-265 150 -300 172 -8 5 -64 37 -124 72 -60 35 -127 74 -150 87 -23 13 -70 40
-106 61 -121 69 -455 263 -485 281 -16 10 -46 26 -65 37 -19 11 -132 75 -250
144 -357 207 -343 200 -368 183z m79 -737 c52 -17 88 -46 109 -88 22 -42 27
-129 10 -146 -8 -8 -7 -14 2 -21 10 -8 427 -250 578 -335 19 -11 267 -154 550
-318 283 -164 598 -345 699 -404 l184 -105 33 32 c59 57 124 69 197 38 124
-53 149 -227 43 -305 -35 -26 -91 -48 -100 -39 -3 4 -6 -2 -7 -13 -4 -106 0
-2324 4 -2332 4 -5 22 -13 41 -16 44 -8 99 -60 118 -111 66 -178 -158 -322
-294 -189 l-34 33 -50 -28 c-68 -38 -110 -62 -254 -146 -69 -40 -141 -82 -160
-93 -19 -11 -80 -45 -135 -77 -55 -31 -104 -60 -110 -65 -5 -4 -37 -22 -70
-40 -83 -46 -78 -43 -470 -270 -192 -112 -361 -210 -375 -217 -14 -8 -46 -26
-71 -41 -25 -15 -109 -63 -187 -107 -124 -70 -141 -83 -135 -100 4 -11 7 -47
7 -81 1 -49 -4 -68 -24 -97 -52 -76 -146 -100 -230 -59 -66 32 -95 80 -94 156
0 34 3 70 7 81 6 17 -2 25 -55 54 -35 19 -128 72 -208 119 -80 47 -164 95
-186 108 -23 13 -183 105 -355 205 -173 100 -334 193 -359 207 -25 14 -61 35
-80 47 -19 12 -55 33 -80 47 -70 39 -589 337 -643 369 -54 33 -63 35 -70 14
-4 -8 -24 -26 -47 -41 -119 -79 -280 8 -280 151 0 88 78 176 157 177 5 0 13 3
18 8 12 10 13 2320 1 2339 -4 6 -13 11 -19 9 -41 -7 -110 42 -137 97 -64 132
47 284 191 260 40 -7 119 -57 119 -76 0 -6 6 -9 13 -7 10 2 285 159 487 278
21 12 197 114 240 138 19 11 76 43 125 72 50 29 110 64 135 78 25 14 78 44
117 68 40 24 75 44 78 44 3 0 22 11 43 24 46 29 412 240 432 249 8 4 92 52
185 107 l170 99 -3 60 c-6 101 41 174 128 199 48 14 62 14 101 0z"/>
<path d="M4805 6796 c-49 -29 -169 -98 -265 -153 -96 -56 -316 -182 -488 -282
-173 -100 -316 -181 -318 -181 -3 0 -21 -11 -42 -23 -20 -13 -49 -31 -63 -40
-27 -16 -27 -17 -12 -58 34 -101 -39 -216 -148 -232 l-24 -4 0 -759 c0 -757 0
-759 20 -760 63 -3 131 -63 154 -135 11 -35 11 -54 -4 -109 -6 -24 3 -31 157
-119 90 -52 188 -107 218 -124 30 -16 62 -36 71 -43 8 -8 18 -14 22 -14 3 0
30 -14 59 -31 29 -18 69 -41 88 -52 19 -11 178 -102 354 -204 289 -167 346
-194 346 -164 0 6 21 22 47 38 83 48 176 32 235 -41 l16 -21 44 25 c24 13 139
79 256 147 117 68 217 123 222 123 6 0 10 5 10 10 0 6 4 10 9 10 5 0 112 60
238 133 125 73 294 170 376 217 111 64 146 88 141 100 -26 65 -7 154 45 204
26 25 113 60 124 50 5 -6 7 1486 1 1507 -3 10 -19 19 -40 22 -47 8 -99 49
-123 95 -19 37 -21 88 -7 147 l7 30 -287 165 c-445 256 -658 379 -674 390 -8
6 -22 13 -30 17 -14 7 -198 113 -230 133 -8 5 -30 17 -48 26 l-33 17 -35 -36
c-38 -38 -96 -58 -147 -50 -39 6 -97 38 -115 64 -7 10 -19 19 -25 19 -7 -1
-52 -25 -102 -54z"/>
</g>
</svg>
